<svg width="895" height="450" xmlns="http://www.w3.org/2000/svg" aria-hidden="true" fill="currentColor" data-icon="book" focusable="false">

 <g>
  <title>Layer 1</title>
  <path fill="#ffffff" stroke="null" stroke-width="0.5" id="svg_1" d="m528.86364,53.25l-162.72728,0c-4.50043,0 -8.13636,3.76652 -8.13636,8.42857l0,219.14286c0,4.66205 3.63594,8.42857 8.13636,8.42857l162.72728,0c4.50043,0 8.13636,-3.76652 8.13636,-8.42857l0,-219.14286c0,-4.66205 -3.63594,-8.42857 -8.13636,-8.42857zm-66.10796,18.96429l24.40909,0l0,55.28616l-11.82315,-8.92902l-12.58594,9.32411l0,-55.68125zm55.9375,198.07143l-142.38637,0l0,-198.07143l71.19318,0l0,78.20134c0,0.8692 0.25426,1.73839 0.76278,2.44955a4.04276,4.18795 0 0 0 5.67003,0.97455l21.3071,-15.77723l20.69688,15.64554c0.68651,0.52679 1.52557,0.81652 2.39006,0.81652c2.2375,0 4.06818,-1.89643 4.06818,-4.21429l0,-78.09598l16.27273,0l0,198.07143l0.02543,0z"/>
  <text transform="matrix(6.12485 0 0 5.09921 -2726.13 -2545.19)" stroke="null" font-style="normal" font-weight="normal" xml:space="preserve" text-anchor="start" font-family="monospace" font-size="24" fill="#ffffff" id="svg_4" y="580.62491" x="445.58862">RENT-A-BOOK</text>
 </g>
</svg>